# Blender v2.82 (sub 7) OBJ File: ''
# www.blender.org
mtllib untitled.mtl
o Dice_d6_LP
v -0.027985 -0.030000 0.027985
v 0.027985 -0.030000 -0.027985
v 0.027985 -0.030000 0.027985
v -0.027985 0.027985 -0.030000
v 0.027985 0.027985 -0.030000
v -0.027985 -0.027985 -0.030000
v 0.030000 -0.027985 -0.027985
v 0.030000 0.027985 -0.027985
v 0.030000 -0.027985 0.027985
v 0.030000 0.027985 0.027985
v -0.030000 0.027985 -0.027985
v -0.030000 -0.027985 -0.027985
v -0.030000 0.027985 0.027985
v 0.027985 0.027985 0.030000
v -0.027985 0.027985 0.030000
v 0.027985 -0.027985 0.030000
v -0.030000 -0.027985 0.027985
v 0.027985 0.030000 -0.027985
v -0.027985 0.030000 -0.027985
v 0.027985 0.030000 0.027985
v -0.027985 -0.030000 -0.027985
v -0.027985 -0.027985 0.030000
v -0.027985 0.030000 0.027985
v 0.027985 -0.027985 -0.030000
vt 0.302412 0.938505
vt 0.015634 0.651727
vt 0.302412 0.651727
vt 0.302412 0.302412
vt 0.015634 0.302412
vt 0.302412 0.015634
vt 0.333681 0.302412
vt 0.333681 0.015634
vt 0.620459 0.302412
vt 0.620459 0.015634
vt 0.333681 0.620459
vt 0.333681 0.333681
vt 0.620459 0.620459
vt 0.015634 0.620459
vt 0.015634 0.333681
vt 0.302412 0.620459
vt 0.620459 0.333681
vt 0.651727 0.302412
vt 0.651727 0.015634
vt 0.938505 0.302412
vt 0.015634 0.938505
vt 0.302412 0.333681
vt 0.938505 0.015634
vt 0.812500 0.859375
vt 0.800781 0.851562
vt 0.812500 0.843750
vt 0.753906 0.714844
vt 0.769531 0.707031
vt 0.769531 0.718750
vt 0.769531 0.859375
vt 0.753906 0.851562
vt 0.769531 0.843750
vt 0.812500 0.750000
vt 0.812500 0.765625
vt 0.800781 0.757812
vt 0.769531 0.812500
vt 0.753906 0.804688
vt 0.769531 0.796875
vt 0.812500 0.718750
vt 0.800781 0.714844
vt 0.812500 0.707031
vt 0.753906 0.757812
vt 0.769531 0.750000
vt 0.769531 0.765625
vt 0.812500 0.812500
vt 0.800781 0.804688
vt 0.812500 0.796875
vt 0.652344 0.347656
vt 0.937500 0.332031
vt 0.937500 0.347656
vt 0.937500 0.507812
vt 0.652344 0.523438
vt 0.652344 0.507812
vt 0.333681 0.895641
vt 0.620459 0.881045
vt 0.620459 0.895641
vt 0.620459 0.697591
vt 0.333681 0.712186
vt 0.333681 0.697591
vt 0.937500 0.464844
vt 0.652344 0.476562
vt 0.652344 0.464844
vt 0.620459 0.651727
vt 0.333681 0.666322
vt 0.333681 0.651727
vt 0.937500 0.417969
vt 0.652344 0.433594
vt 0.652344 0.417969
vt 0.620459 0.789318
vt 0.333681 0.803913
vt 0.333681 0.789318
vt 0.937500 0.554688
vt 0.652344 0.570312
vt 0.652344 0.554688
vt 0.333681 0.849777
vt 0.620459 0.835182
vt 0.620459 0.849777
vt 0.620459 0.743454
vt 0.333681 0.758050
vt 0.333681 0.743454
vt 0.652344 0.394531
vt 0.937500 0.378906
vt 0.937500 0.394531
vt 0.015634 0.015634
vt 0.652344 0.332031
vt 0.937500 0.523438
vt 0.333681 0.881045
vt 0.620459 0.712186
vt 0.937500 0.476562
vt 0.620459 0.666322
vt 0.937500 0.433594
vt 0.620459 0.803913
vt 0.937500 0.570312
vt 0.333681 0.835182
vt 0.620459 0.758050
vt 0.652344 0.378906
vn 0.0000 -1.0000 -0.0000
vn 0.0000 0.0000 -1.0000
vn 1.0000 0.0000 0.0000
vn -1.0000 0.0000 0.0000
vn 0.0000 -0.0000 1.0000
vn 0.0000 1.0000 0.0000
vn 0.4606 -0.4606 -0.7588
vn 0.7588 -0.4606 -0.4606
vn 0.4606 -0.7588 -0.4606
vn 0.4606 0.4606 -0.7588
vn 0.4606 0.7588 -0.4606
vn 0.7588 0.4606 -0.4606
vn 0.4606 -0.7588 0.4606
vn 0.7588 -0.4606 0.4606
vn 0.4606 -0.4606 0.7588
vn 0.4606 0.4606 0.7588
vn 0.7588 0.4606 0.4606
vn 0.4606 0.7588 0.4606
vn -0.4606 -0.7588 -0.4606
vn -0.7588 -0.4606 -0.4606
vn -0.4606 -0.4606 -0.7588
vn -0.4606 -0.7588 0.4606
vn -0.4606 -0.4606 0.7588
vn -0.7588 -0.4606 0.4606
vn -0.4606 0.4606 -0.7588
vn -0.7588 0.4606 -0.4606
vn -0.4606 0.7588 -0.4606
vn -0.4606 0.7588 0.4606
vn -0.7588 0.4606 0.4606
vn -0.4606 0.4606 0.7588
usemtl M_d6
s 1
f 1/1/1 2/2/1 3/3/1
f 4/4/2 5/5/2 6/6/2
f 7/7/3 8/8/3 9/9/3
f 9/9/3 8/8/3 10/10/3
f 11/11/4 12/12/4 13/13/4
f 14/14/5 15/15/5 16/16/5
f 13/13/4 12/12/4 17/17/4
f 18/18/6 19/19/6 20/20/6
f 21/21/1 2/2/1 1/1/1
f 16/16/5 15/15/5 22/22/5
f 20/20/6 19/19/6 23/23/6
f 24/24/7 7/25/8 2/26/9
f 5/27/10 18/28/11 8/29/12
f 3/30/13 9/31/14 16/32/15
f 14/33/16 10/34/17 20/35/18
f 21/36/19 12/37/20 6/38/21
f 1/39/22 22/40/23 17/41/24
f 4/42/25 11/43/26 19/44/27
f 23/45/28 13/46/29 15/47/30
f 5/48/10 7/49/8 24/50/7
f 9/51/14 2/52/9 7/53/8
f 10/54/17 16/55/15 9/56/14
f 21/57/19 24/58/7 2/59/9
f 1/60/22 12/61/20 21/62/19
f 11/63/26 6/64/21 12/65/20
f 13/66/29 19/67/27 11/68/26
f 15/69/30 17/70/24 22/71/23
f 20/72/18 8/73/12 18/74/11
f 4/75/25 18/76/11 5/77/10
f 22/78/23 3/79/13 16/80/15
f 23/81/28 14/82/16 20/83/18
f 6/6/2 5/5/2 24/84/2
f 5/48/10 8/85/12 7/49/8
f 9/51/14 3/86/13 2/52/9
f 10/54/17 14/87/16 16/55/15
f 21/57/19 6/88/21 24/58/7
f 1/60/22 17/89/24 12/61/20
f 11/63/26 4/90/25 6/64/21
f 13/66/29 23/91/28 19/67/27
f 15/69/30 13/92/29 17/70/24
f 20/72/18 10/93/17 8/73/12
f 4/75/25 19/94/27 18/76/11
f 22/78/23 1/95/22 3/79/13
f 23/81/28 15/96/30 14/82/16
